<svg xmlns="http://www.w3.org/2000/svg" viewBox="0 0 30 30" x="0px" y="0px"><title>017 - Waterfall Vs Agile</title><path d="M15,28a12.913,12.913,0,0,0,7-2.063V24H20a2,2,0,0,1-2-2V20H16a2,2,0,0,1-2-2V16H12a2,2,0,0,1-2-2V12H8a2,2,0,0,1-2-2V8H4.063A12.979,12.979,0,0,0,15,28Z"/><path d="M6,6A2,2,0,0,1,8,8v2h2a2,2,0,0,1,2,2v2h2a2,2,0,0,1,2,2v2h2a2,2,0,0,1,2,2v2h2a2,2,0,0,1,2,2v.359A12.985,12.985,0,1,0,5.641,6Z"/><path d="M58.293.293l-58,58a1,1,0,1,0,1.414,1.414l58-58A1,1,0,0,0,58.293.293Z"/><path d="M57.707,54.293a1,1,0,0,0-1.414,1.414l.293.293H48.174a13.982,13.982,0,0,0-4.465-25.732A2.961,2.961,0,0,0,44,29a3,3,0,0,0-4.5-2.6,1,1,0,0,0,1,1.733A1,1,0,1,1,41,30,14.017,14.017,0,0,0,27.068,42.654l-.361-.361a1,1,0,0,0-1.414,1.414l2,2a1,1,0,0,0,1.414,0l2-2a1,1,0,0,0-1.414-1.414l-.186.186A12,12,0,1,1,41,56H22a1,1,0,0,0,0,2H41c.27,0,.533-.025.8-.04A.967.967,0,0,0,42,58H56.586l-.293.293a1,1,0,1,0,1.414,1.414l2-2a1,1,0,0,0,0-1.414Z"/><text x="0" y="75" fill="#000000" font-size="5px" font-weight="bold" font-family="'Helvetica Neue', Helvetica, Arial-Unicode, Arial, Sans-serif">Created by Juicy Fish</text><text x="0" y="80" fill="#000000" font-size="5px" font-weight="bold" font-family="'Helvetica Neue', Helvetica, Arial-Unicode, Arial, Sans-serif">from the Noun Project</text></svg>